<svg id="Слой_1" data-name="Слой 1" xmlns="http://www.w3.org/2000/svg" viewBox="0 0 636.2 396.02"><path d="M176.43,385c45.5-1.67,57.66-44.17,52.91-72.67s-13.41-19-15.25-52.25c-.41-7.48,2.26-14.38,6.11-20.33l2.57-1.29,10.14-5.24c6.65-3.45,13.11-6.71,19.16-10l17.08-9.11,14.36-7.86,8.65-4.87c-1.94,6.38-3.73,12-5.07,15.92-2.33,6.81-4,12.53-8.67,15.5-.48.31-1,.59-1.46.86-.6.06-1.29.13-2.11.18a22.12,22.12,0,0,1-5.21-.22,51.21,51.21,0,0,1-6.16-1.57,51.93,51.93,0,0,0-6.9-1.71,21.4,21.4,0,0,0-7.27.2,18.51,18.51,0,0,0-3.38,1.22,30.16,30.16,0,0,0-3.07,1.51c-1,.55-1.91,1.13-2.83,1.7s-1.78,1.2-2.6,1.84a42.34,42.34,0,0,0-4.45,3.95c-.67.66-1.28,1.33-1.86,2s-1.14,1.3-1.64,1.93a29.58,29.58,0,0,0-2.54,3.62,16.86,16.86,0,0,0-1.41,3.1,8.27,8.27,0,0,0-.36,1.4s0,.09,0,.13c0,.2-.06.39-.09.55a7.37,7.37,0,0,0-.05.82v.07h0A7.33,7.33,0,1,0,236,248c0-.12,0-.22,0-.34a8.43,8.43,0,0,1,.47-2.82,17,17,0,0,1,3.11-4.6,19.1,19.1,0,0,1,4.65-3.62,28.64,28.64,0,0,1,2.71-1.37,21.22,21.22,0,0,1,2.87-1.07,18.44,18.44,0,0,1,3.06-.39,17.27,17.27,0,0,1,3.05.14,20,20,0,0,1,5.76,1.78c1.81.84,3.5,1.82,5.11,2.74s3.15,1.77,4.63,2.46a23.9,23.9,0,0,0,7.53,2.21,18.18,18.18,0,0,0,2.19.12h.77c10.75,0,15.85-4.84,19.27-15.79L309,202v0c1.58-5.14,7.33-11.23,8.58-11s-5.83,14.75-4.29,16,17.29-20.5,20.54-21-6.6-6.1-20.42,1.7c4.43-14.34,8.63-27.95,9.78-31.74,2.7-8.84,1.39-17.21-5.86-19.46s-15,1.75-17,8.5c0,0,4.75,0,5.79,4.25.46,1.85-5.63,24.09-11.43,43.64l-53.46,26.23c.74-.49,1.17-.75,1.17-.75L200,239.31s-.26.15-.69.43l-12.47,6.12-21.4,10.5L160.17,259c-1.75.85-3.49,1.7-5.15,2.69a56.08,56.08,0,0,0-9.24,6.65,29.06,29.06,0,0,0-6.82,8.58A16.58,16.58,0,0,0,137.4,282a14.5,14.5,0,0,0,2.38,9.79,13.23,13.23,0,0,0,3.5,3.42,19.47,19.47,0,0,0,8.77,3,32.66,32.66,0,0,0,16-2.52,22.93,22.93,0,0,0,9.91-7.53,12.64,12.64,0,0,0,2.38-7.61,13.46,13.46,0,0,0-.24-2.13l-.15-.71a8.81,8.81,0,1,0-17.09,4.27s.64-.25,1.68-.53a15.32,15.32,0,0,1,3.92-.6,6.59,6.59,0,0,1,4,1.12,3.35,3.35,0,0,1,1.15,1.46c.05.14.09.28.13.43l.06.45a5.38,5.38,0,0,1,0,1,7.87,7.87,0,0,1-1.86,4.44,10.81,10.81,0,0,1-2.16,2,16.12,16.12,0,0,1-2.83,1.49,27.19,27.19,0,0,1-6.88,1.68,31.69,31.69,0,0,1-3.8.2,22.82,22.82,0,0,1-3.85-.44,13.91,13.91,0,0,1-6.58-3.22,7.9,7.9,0,0,1-1.74-2.61l-.12-.34a1.66,1.66,0,0,1-.05-.26c.06.06-.3-.91-.21-.84a9.52,9.52,0,0,1-.15-1.64,8.69,8.69,0,0,1,2.18-5.48,19.13,19.13,0,0,1,2.55-2.69c1-.9,2.12-1.8,3.32-2.7a77.87,77.87,0,0,1,8.05-5.15c.71-.41,1.44-.81,2.13-1.16l2.45-1.19,5.28-2.56L189.69,255a28.86,28.86,0,0,0,.4,10.59c4,18.75,12.25,9.67,17.5,22.59s-3.75,35.16-10.75,47.66-23.69,47.74-50.61,35.26c-7-3.25-8.15-24.38-.39-38.76,8.5-15.75,20.5-16,21.5-19.75,0,0-.58-10.75-15.25-10.08-3.81.22-14.66,2.33-16.83,4.17S124.43,322,124.43,335.3,130.93,386.64,176.43,385Z" transform="translate(-124.43 -114.78)"/><path d="M291.18,328.92c-4.46,14.41-8.86,27.58-13.09,37-6.61,14.77-10,13.29-9.29,16.17s6.07,2.29,15.4,2.29c9.17,0,16.65-2.33,21.58-17.95,2-6.21,7.79-24.74,12.22-39.38,4.92-16.3-1.1-27.84-17.14-27.85h0l-1.23.06a19.41,19.41,0,0,0-3.44.54,20.64,20.64,0,0,0-5,2,29.7,29.7,0,0,0-5.72,4.09,63.42,63.42,0,0,0-11,13.68c-2.41,3.87-4.7,8.07-6.86,12.4.63-1.82,1.22-3.55,1.75-5.14,4.84-14.52,17.85-55.86,17.85-55.86s4.83-14.52,4.15-17.57-4.74-5.94-12.89-5.94-47.88,10.7-47.88,45c0,9.46,6.17,17.07,10.35,16.14,2.47-.57,8.2-22.2,6.92-24.62-1.63-3.11-3.43-8-1.14-13.58,3.25-7.88,8.83-6.6,10.36-4.59,4.74,6.28-4.42,32.09-4.42,32.09-6.45,21.55-16.25,53.05-23.51,66-8,14.37-13,15.31-12.36,18.21s6.07,2.28,15.41,2.28h.87c.26,0,.53,0,.78,0l.79,0,1.47-.08c13.47-1.06,16.83-9.13,18-11.38,1.51-3,1.09-4.24,2.46-6.92s2.51-5.61,3.78-8.59,2.75-6,4.24-9,3-6.07,4.61-9.06a171.27,171.27,0,0,1,9.91-16.91,59.79,59.79,0,0,1,9.51-11.2c3.89-1.78,7.68.39,3.38,15.19C291.69,327.28,291.43,328.1,291.18,328.92Z" transform="translate(-124.43 -114.78)"/><path d="M321,384.4c4.09,0,10.87.46,16-4.41s9.64-22.15,11.83-29.75c2.56-8.9,7.37-24,10.34-35.25,2.5-9.5,8.25-4.59,10-6.5,1.37-1.51-2.09-9.75-16.34-9.75-13.5,0-18.25,11.25-21.75,20.5s-9,30-12.84,41.8c-3.56,10.83-6.53,19.72-5,22.32C314.09,384.88,318.19,384.41,321,384.4Z" transform="translate(-124.43 -114.78)"/><path d="M381.43,247.47c12.91,19.83-6.29,62.09-8.84,71.65-2.81,10.57-11.29,33.56-15.16,45.35-3.56,10.83-9.05,16.29-7.55,18.89.88,1.52,7,1.05,9.79,1,4.1,0,10.88.46,16-4.41s10.64-22.15,12.84-29.75c2.56-8.9,8.71-28.2,13.21-41.95,4.75,14.5,7.43,33.76,10.25,34.39,3.37.75,18-32.21,31-36.88-7.5,5.09-12.19,21.64-16.34,35.81s-7.37,21.57-6.24,29.7c1,7.46,5.58,13.17,17.91,13.17,8.1,0,9.17-4.93,9.17-4.93-3.17-2.5-4.87-7.68-2.88-13.68s25.05-78.82,25.05-78.82c7.75-30.75-16.38-45.87-28.26-45.87s-21.89,7.81-24.25,11.5c-3.75,5.87-3.5,15,1.38,19.12a14.18,14.18,0,0,0,15.12,2c4.63-2.25,6.63-12.12,1.38-17.25s-12.21-1.08-12.21-1.08c9.33-11.33,26.5-12.51,26.5,6.67,0,17.66-12.79,30.54-17.17,36.16a200.41,200.41,0,0,0-16.37,23.13c-2.38-12.25-10.33-37.93-13.79-50-4-14-18.71-30-21.5-28.51C378.88,243.81,380.8,246.51,381.43,247.47Z" transform="translate(-124.43 -114.78)"/><path d="M359.2,258.35c-.23.45-.47.89-.71,1.3s-.57.91-.86,1.34-.57.83-.87,1.23-.68.85-1,1.25c-.7.82-1.35,1.53-2.16,2.32a46.73,46.73,0,0,1-4.77,4c-1.72,1.27-3.21,2.26-4.51,3.05-1.47.91-2.61,1.55-3.39,2l-1.33.72a21.52,21.52,0,0,0,37.08-21.85l-.84-1.15a33.26,33.26,0,0,0-2.61-3.08,31.48,31.48,0,0,0-4.72-4.14,30.83,30.83,0,0,0-7.1-3.82,33.52,33.52,0,0,0-9.05-2,41.85,41.85,0,0,0-9.95.45,55.83,55.83,0,0,0-10,2.68,67.6,67.6,0,0,0-9.67,4.39,46.38,46.38,0,0,0-4.58,2.84c-.37.24-.76.52-1.14.8l-.51.37-.55.44c-.71.55-1.4,1.13-2.07,1.73a83.91,83.91,0,0,0-7.58,7.73,32.09,32.09,0,0,0-5.67,9.39,19.12,19.12,0,0,0-.72,11,14.87,14.87,0,0,0,1,2.79c.08.2.22.48.37.77l.44.8.24.37.12.19c.28.45.09.14.16.25l0,0,.05.07.11.14a12.57,12.57,0,0,0,4,3.54,11,11,0,0,0,7.73,1.24,9.58,9.58,0,0,0,4.33-2.1,6.39,6.39,0,0,0,1.26-1.33L318.5,287c-.71-.71-1.68-1.64-2.61-2.67a15.9,15.9,0,0,1-2.28-3.17c-.27-.51-.48-.95-.71-1.44l0,0v0h0l.11.18-.11-.2-.21-.39s0,0,0-.05,0,0,0-.11c-.07-.26-.19-.56-.28-.9a23.52,23.52,0,0,1-.71-5.71,24.08,24.08,0,0,1,1.12-7.79,22,22,0,0,1,1.81-4.05,22.74,22.74,0,0,1,2.76-3.71,35.21,35.21,0,0,1,7.38-6.18,51,51,0,0,1,8.82-4.46,39.43,39.43,0,0,1,9.32-2.38c.78-.1,1.55-.17,2.32-.23s1.53-.05,2.28,0a28.22,28.22,0,0,1,4.37.35,30.15,30.15,0,0,1,4,.94,10,10,0,0,1,1.83.68,5.34,5.34,0,0,1,1.51,1.22c1.77,2,2.18,5.42,1.08,8.89A18.72,18.72,0,0,1,359.2,258.35Z" transform="translate(-124.43 -114.78)"/><path d="M760.59,384.89c-.05-.82-.15-1.62-.23-2.44l-.11-1a8.09,8.09,0,0,0-.12-.84l-.06-.42,0-.21c0-.21,0,.16-.11-.52l-.24-1.16A32.69,32.69,0,0,0,756,369a29.53,29.53,0,0,0-7.25-8.27,29.16,29.16,0,0,0-4.79-3,32.78,32.78,0,0,0-5.16-1.95,33.58,33.58,0,0,0-10-1.13c-6.24.19-11.44,1.36-16.44,2.23-10,1.87-18.77,5.82-27.21,10-4.2,2.15-8.24,4.54-12.24,7-1,.62-2,1.24-3,1.9s-1.94,1.3-2.93,2c-2,1.36-3.83,2.83-5.68,4.28a172.31,172.31,0,0,0-20.1,19.37q-4.47,5-8.71,10.2c17.15-54,30.32-89.43,37.25-107.2a20.18,20.18,0,0,1,1.63-1.8c.35-.33.68-.7,1.05-1l1.09-.9a25.29,25.29,0,0,1,2.27-1.66,20.79,20.79,0,0,1,4.93-2.39,28.57,28.57,0,0,1,5.36-1.06,46,46,0,0,1,5.51-.11,24.35,24.35,0,0,1,5.18.9,22,22,0,0,1,4.77,2,20.72,20.72,0,0,1,4,3,18,18,0,0,1,4.76,7.87,23.88,23.88,0,0,1,1,4.47,32.62,32.62,0,0,1,.27,4.65,26.77,26.77,0,0,1-1.52,8.45,20.58,20.58,0,0,1-1.72,3.81,18.3,18.3,0,0,1-2.28,3.23,12.18,12.18,0,0,1-6.14,3.8,17,17,0,0,1-7,.15,11.44,11.44,0,0,1-3.23-1.05,7.4,7.4,0,0,1-2.48-2.08c-2.55-3.46-.92-8.63,2-9.31a4,4,0,0,1,3.78,1.13A8.33,8.33,0,0,1,695,330a11.55,11.55,0,0,1,.53,3.25,11,11,0,0,1,0,1.36,9.56,9.56,0,1,0-1.41-19.07s-.29,0-.86.11a15.87,15.87,0,0,0-2.46.57A13.62,13.62,0,0,0,687,318a11.7,11.7,0,0,0-3.71,4.37A14.16,14.16,0,0,0,682,329a13.67,13.67,0,0,0,2.38,7.47,14.73,14.73,0,0,0,7,5.19,21,21,0,0,0,9.39,1.22,20.78,20.78,0,0,0,5.11-1.23,22.56,22.56,0,0,0,4.88-2.66,23.52,23.52,0,0,0,4.22-3.89,25,25,0,0,0,3.33-4.87,25.88,25.88,0,0,0,3-11.94,41.33,41.33,0,0,0-.58-6.18,30,30,0,0,0-2-6.22,24.77,24.77,0,0,0-8.72-10.16,31.85,31.85,0,0,0-12-4.66c-1.05-.16-2.09-.35-3.14-.46s-2.11-.17-3.21-.18l-3.08,0-3.13.09a44.11,44.11,0,0,0-12.79,2.24,81.26,81.26,0,0,0-20.48,12L650,306.72c-.83.69-1.58,1.42-2.33,2.15-1.48,1.46-2.87,2.9-4.16,4.4s-2.41,3.12-3.77,4.43-2.69,2.63-4,3.94c-5.32,5.15-10.36,10.18-15.06,15-2.36,2.39-4.66,4.71-6.87,7s-4.42,4.34-6.52,6.35c-4.22,4-8,7.68-11.58,10.67-1.78,1.48-3.4,2.91-5,4.12s-3,2.29-4.3,3.22l-.86.58c-1.68-6.57-1.46-16.41,2.67-29,8-24.34,19.32-35.23,23.82-35.23s5.19,7.72,4.88,10.88c-.52,5.14-1.74,10.08-7.38,18.37,0,0,28.33-15.08,28.33-25.42,0-9.44-12.08-9.85-30.83-9.85s-34.05,5.91-45.23,40.44c-6.12,18.92-3.4,31,3.73,38-7.23,1.41-15.87,1.49-19.16-3.12-5-7,11-54.7,11-54.7,3.87-12,10.66-17.31,10.06-19-.69-1.94-8.94-1.63-11.94-1.63-13.33,0-13.83,2.17-19,8.83s-10.66,40.34-17.83,51.5S501.26,378,494.59,378s-13.32-14.11-5.32-38.44,23.66-30.4,28.16-30.4c4.09,0,2.35,3.11-.92,5.67-4.06,3.18-13.15,6.83-15.92,15-2,6,3.67,29.38,8.75,29.38,6.08,0,17.42-39.55,18.25-45.55.62-4.44-.75-15.35-19.5-15.35s-34,5.91-45.23,40.44S469.93,385,490.76,385s31.83-16.84,31.83-16.84c.09,17.52,13.5,16.84,29,16.84a73.15,73.15,0,0,0,21.32-3.26A40.86,40.86,0,0,0,589.76,385c20.42,0,31.4-16.19,31.82-16.82-.27.81-8.44,21.53-16.82,47.1L604,415c-8.61-3-17.27-5.86-26.07-8.28a365,365,0,0,0-53.72-10.21c-18.1-2.21-36.3-3.35-54.5-3.93-4.55-.19-9.1-.21-13.65-.28s-9.09-.09-13.63-.12L415.22,392,388,391.83l-27.23,0L306.3,392,279.05,392c-9.13-.07-18.32.14-27.49.89-4.59.35-9.16.91-13.74,1.51S228.63,395.49,224,396s-9.38,1.12-14.07,2.06-9.34,2.15-14.16,3.25a124.11,124.11,0,0,0-14.47,4.21A47.23,47.23,0,0,0,168,413c-1,.8-2,1.63-2.91,2.52a35,35,0,0,0-2.69,2.75,29.89,29.89,0,0,0-4.34,6.47,28.22,28.22,0,0,0-2.59,7.69,24.22,24.22,0,0,0,0,9l.33,1.69a1.82,1.82,0,0,0,.6,1A1.86,1.86,0,0,0,159,444a137.9,137.9,0,0,1,19-18.38,116.78,116.78,0,0,1,22.52-13.77c16.08-7.46,33.78-11.61,51.65-13.12,8.94-.82,17.93-1.11,26.95-1.12l27.21.14,54.46.26,27.23.13,27.23-.09c18.14,0,36.33-.26,54.39,0s36.15,1.06,54.11,2.93a347.92,347.92,0,0,1,53.19,9.55q13.05,3.49,25.8,8.12l.84.3c-8.57,26.56-17,57.42-17,76.51a19.71,19.71,0,0,0,1.13,6.76,13.58,13.58,0,0,0,3.83,5.64,11.88,11.88,0,0,0,6.17,2.83,15.82,15.82,0,0,0,3.44,0,18.65,18.65,0,0,0,3.39-.59,11.24,11.24,0,0,0,5.79-3.53,9.5,9.5,0,0,0,1.64-2.91c0-.1.07-.2.1-.3l.24-.16a6.92,6.92,0,0,0,1.18-3.89,7,7,0,0,0-7-7,6.89,6.89,0,0,0-2,.29,7,7,0,0,0-1.82,12.59,4.61,4.61,0,0,1-1.89,1.35,6.82,6.82,0,0,1-1.42.33l-.18,0h-.09l-.43,0a3.2,3.2,0,0,1-.46,0,5.35,5.35,0,0,1-2.25-.57,6.72,6.72,0,0,1-1.91-1.44,9.4,9.4,0,0,1-2.12-4.31,19.75,19.75,0,0,1-.43-2.5c-.08-.79-.15-1.61-.19-2.45l.15-.8.32-1.54c.23-1,.49-2.07.77-3.12.53-2.09,1.12-4.2,1.78-6.3a125,125,0,0,1,4.43-12.56c.85-2.07,1.75-4.13,2.75-6.13.5-1,1-2,1.51-3l1.66-2.94c1.06-2,2.37-3.82,3.58-5.71s2.57-3.73,3.88-5.58c5-6.93,10-13.79,15.21-20.52l1,.36c4.34,1.47,8.76,2.77,13.21,4,2.24.52,4.47,1.13,6.74,1.55l3.39.69,3.42.57c1.13.21,2.28.38,3.42.51l3.44.45c2.3.23,4.64.45,6.92.64l5.1.33,1.78.08c2.32.07,4.64.13,6.95.13,4.63,0,9.27-.15,13.92-.53s9.31-.83,14-1.58c2.34-.39,4.7-.84,7-1.38s4.71-1.21,7.08-1.94a55.84,55.84,0,0,0,13.94-6.52,54.27,54.27,0,0,0,12.41-11.7c.48-.6.91-1.22,1.35-1.85s.88-1.27,1.32-1.93a44.34,44.34,0,0,0,2.31-4.11,41.47,41.47,0,0,0,3.28-8.91,38.21,38.21,0,0,0,1.19-9.17C760.62,386.4,760.62,385.67,760.59,384.89Zm-137-26.26c-7.52,10.94-23.33,19.34-30,19.34-2,0-3.9-1.23-5.49-3.56.62-.37,1.25-.76,1.91-1.18a52.86,52.86,0,0,0,4.75-3.45c1.65-1.33,3.41-2.78,5.17-4.45,3.56-3.29,7.34-7.19,11.39-11.48l6.3-6.67c2.21-2.28,4.48-4.63,6.88-7l3.68-3.54c1.23-1.2,2.51-2.38,3.86-3.52a37.75,37.75,0,0,1,4-2.91C631.66,342,627.31,353.23,623.59,358.63Zm115,36.81a27.62,27.62,0,0,1-9.14,17.79c-5.48,4.9-13,8.94-21.08,11.9a113.3,113.3,0,0,1-12.61,3.73,103.88,103.88,0,0,1-13.18,2.08c-2.22.19-4.45.4-6.67.42l-1.63,0-1.7,0-3.41-.09c-2.25-.08-4.44-.28-6.66-.45l-3.34-.37c-1.11-.11-2.22-.25-3.32-.42l-3.32-.49-3.3-.6c-2.21-.37-4.39-.92-6.58-1.38-4.22-1-8.43-2.18-12.6-3.49.83-1.05,1.66-2.11,2.5-3.15q2.16-2.61,4.37-5.17,4.43-5.12,9.07-10c3.11-3.25,6.29-6.41,9.59-9.42s6.77-5.8,10.33-8.4c1.78-1.3,3.59-2.54,5.45-3.68.92-.57,1.85-1.14,2.83-1.7s1.92-1.08,2.89-1.61c3.89-2.1,7.87-4,11.93-5.74a109.27,109.27,0,0,1,12.34-4.38,68.6,68.6,0,0,1,12.48-2.44,32,32,0,0,1,11.69.87,16.31,16.31,0,0,1,8.35,5.39,21.65,21.65,0,0,1,4,9.46l.14.69c-.06-.21,0,.06,0,.07l0,.21.07.42.14.84a7.54,7.54,0,0,1,.12.78l.16,1.34.12,1.43A33,33,0,0,1,738.6,395.44Z" transform="translate(-124.43 -114.78)"/><path d="M348.21,149.3c-.6,2.79-13.33,51.3-19,68-2.33,6.81-7.43,20.5-8.67,23.88,11.43-8.4,25.43-9.21,25.43-9.21-8.89-5.69-4.36-22.71-2.6-28.24l1.74-1.7c.49-.48,1-1,1.66-1.53s1.22-1.14,1.93-1.73,1.43-1.21,2.21-1.82,1.64-1.19,2.47-1.8a27.67,27.67,0,0,1,5.45-2.93c.47-.18.94-.3,1.4-.44s.91-.24,1.35-.28a23.85,23.85,0,0,1,2.49-.34,15.29,15.29,0,0,1,2.44,0c.42,0,.87.12,1.32.16s.92.21,1.39.4l.72.27.11,0,.43.23c.34.17.66.37,1,.56l.12.07,0,0,.05.08.1.14a3.6,3.6,0,0,1,.21.3c.07.15.15.28.22.4a.85.85,0,0,1,.07.38l0,.17-.05.17a1.3,1.3,0,0,1-.35.62,5.08,5.08,0,0,1-1.83.86,19.82,19.82,0,0,1-2.83.59c-.9.24-1.45.26-1.77.55a23.87,23.87,0,0,0-1.56,2c-.64.84-1.33,1.71-2,2.71a30,30,0,0,0-4,6.78,28.8,28.8,0,0,0-1.92,8.4c0,.77-.12,1.48-.13,2.25s0,1.52,0,2.26a15,15,0,0,0,.85,4.58,17.53,17.53,0,0,0,5.41,7.69,15.09,15.09,0,0,0,1.77,1.25,15.42,15.42,0,0,0,1.83,1,16.06,16.06,0,0,0,1.71.64c.59.16,1.15.28,1.63.38a14.25,14.25,0,0,0,2.35.24h.89l-.32-1.05a7.28,7.28,0,0,1-.3-1.29c0-.25-.09-.53-.14-.82s-.05-.61-.08-.95a30.2,30.2,0,0,1,1.68-10.9c1.32-4.4,3.42-9.34,5.29-14.77a41.91,41.91,0,0,0,2.14-8.56,21.46,21.46,0,0,0,.16-2.27,15.78,15.78,0,0,0-.18-2.27,12.42,12.42,0,0,0-.55-2.22,10.84,10.84,0,0,0-1.05-2l-.31-.48-.37-.44c-.26-.28-.49-.59-.77-.85a13.61,13.61,0,0,0-1.79-1.42c-.32-.2-.63-.43-1-.61l-1-.51A18.9,18.9,0,0,0,362.91,184a18.58,18.58,0,0,0-7.58,3.13,29.14,29.14,0,0,0-5.48,5,46.49,46.49,0,0,0-5.26,7.56c3.5-10.4,12.51-17,15-25.29,2.7-8.84,6.68-18,5.72-28.59-1.25-13.76-12.75-19.75-20.25-13.26C345.09,132.54,351.09,135.92,348.21,149.3Z" transform="translate(-124.43 -114.78)"/><path d="M384,228a6.67,6.67,0,0,0,.16,1.06c.15.77.29,1.53.44,2.28a27.23,27.23,0,0,0,1.48,4.32,19,19,0,0,0,5.94,7.57,20.2,20.2,0,0,0,8.84,3.69,29.2,29.2,0,0,0,8.5,0,38.28,38.28,0,0,0,7.35-1.62,39,39,0,0,0,6.25-2.56,34.24,34.24,0,0,0,9.48-6.81,20.21,20.21,0,0,0,4.67-8.13,28,28,0,0,0,1.61-5.68C431,220.89,419,223,414,229.63c-.82,1.18-1.69,2.59-2.72,4.17a17.09,17.09,0,0,1-4,4.49,8.91,8.91,0,0,1-5.89,1.72,12.57,12.57,0,0,1-6.25-1.78,12.86,12.86,0,0,1-4.66-5.1,19,19,0,0,1-1.41-3.38,30,30,0,0,1-.78-3.69,32.13,32.13,0,0,1-.2-7.66,32.53,32.53,0,0,1,1.53-7.56,34.55,34.55,0,0,1,7.69-13.31,30.52,30.52,0,0,1,12.3-8.06,16,16,0,0,1,6.05-.91,6,6,0,0,1,2.14.5l.23.09.18.13c.11.08.25.14.37.22s.53.38.55.45l.08.06.06,0h0l.06.1.53.82.09.15.05.13a2.25,2.25,0,0,0,.19.38,5.13,5.13,0,0,1,.32,1.69,12.3,12.3,0,0,1-1.22,5.22,35.11,35.11,0,0,1-7.25,10.76,51.78,51.78,0,0,1-8.9,7.09,24.2,24.2,0,0,1-3.1,1.92c-1.74,1-2.86,1.32-3.79,1.09-1.5-.38-2.37-.88-3.54-4.75-2,6-.19,13.5,3.19,14.22,0,0,1.14-.85,2.34-1.6s-.05,0,2.14-1.29,3.31-2.15,6.34-4,6.45-4,10.3-6.45c5.64-3.58,13.3-8.15,16.42-14.37,2.53-5,2.78-12.78-.06-17.53-3.32-5.55-10.81-8.62-17.33-7.92a23.45,23.45,0,0,0-10.63,3.88c-5.79,3.83-9.66,8.94-13,14a70.21,70.21,0,0,0-4.33,7.85l-.92,2-.79,2.07c-.26.69-.44,1.4-.67,2.1s-.43,1.4-.61,2.11A47.82,47.82,0,0,0,383.89,227Z" transform="translate(-124.43 -114.78)"/><path d="M263.59,174.3c1.75-9.5,2.54-18.13,8-24.5,4.11-4.77,14.38-11.12,18.53-11,0,0-9.53,5.13-12.86,14.17-1.93,5.25-13.17,49.83-13.17,49.83l16-8.28c7.21-23.59,11.55-52.22,22.8-60.47s21-2,21-2,5.25-18,1.75-17.25-71,36.75-71,36.75C251.43,163,263.59,174.3,263.59,174.3Z" transform="translate(-124.43 -114.78)"/><path d="M165.53,227.24a132.54,132.54,0,0,1,8.73-20.13,69.15,69.15,0,0,0,.08,14.78s2.42-10.42,9.67-15.59c-11.84,40.67-14.42,41.17-14.42,41.17,12.44-1.68,18.2-11.17,23.58-28.59s8.68-28,10-32.32c3.21-10.94-4.22-19.74-12.32-15.51,0,0,7.46,8.89-8.31,27.08,0,0-4.36-20.46-8.61-18.24s-29.79,83.93-49.19,83.72C124.7,263.61,147,279.94,165.53,227.24Z" transform="translate(-124.43 -114.78)"/><path d="M231.67,211.55c0,.6-.06,1.2-.06,1.78s0,1.16.06,1.72l.19,2.55,1.61-1,9.55-4.82c1.74-1,3.47-2,5.22-3.11s7.41-5.33,9.17-6.46a9,9,0,0,0,1.23-11.31s-2.37,3.12-2.75,3.64a47,47,0,0,1-5,5.92c-3,2.84-6.86,7-11,7.43a13,13,0,0,1,1.58-8.5,18.37,18.37,0,0,1,3.46-3.29,16.54,16.54,0,0,1,5.12-2.32s1.61-4.88.73-5.14-2.83.57-3.44,1c-1.24.84-3.56,2.34-5.46,3.43.53-1.89,1.91-5.58,2.17-6.31a9.48,9.48,0,0,1,1.31-2.21c2.15-3,5.14-4.55,8.27-6.17.25-.12.49-.24.75-.35a10.31,10.31,0,0,1,4.13-1c-1-2.93-3.52-6.63-8.26-3.82l-5.7,3.36-4.63,2.82L238.44,183c-.33.78-.63,1.54-.91,2.29s-.52,1.48-.79,2.23l-.71,2.17c-.23.73-.43,1.42-.64,2.14-.44,1.43-.75,2.79-1.13,4.18-.19.69-.31,1.36-.48,2l-.46,2-.38,2c-.13.66-.27,1.33-.37,2-.18,1.28-.44,2.6-.56,3.84-.07.63-.16,1.26-.2,1.88Z" transform="translate(-124.43 -114.78)"/><path d="M202.74,205.83c-3.18,9.73-5.9,23-12.9,34.22l9.63-5.07,9.55-4.82c1.74-1,3.47-2,5.22-3.11s7.41-5.33,9.17-6.46a9,9,0,0,0,1.23-11.31s-2.37,3.12-2.75,3.64a47,47,0,0,1-5,5.92c-3,2.84-6.86,7-11,7.43a13,13,0,0,1,1.58-8.51,18.61,18.61,0,0,1,3.46-3.28,16.54,16.54,0,0,1,5.12-2.32s1.61-4.89.73-5.15-2.83.58-3.44,1c-1.24.84-3.56,2.34-5.46,3.43.53-1.89,1.91-5.58,2.17-6.31a9.48,9.48,0,0,1,1.31-2.21c2.15-3,3.56-3.72,6.69-5.34a21,21,0,0,1,3-.91c4-.64,10.48-.38,10.94-12-3.88,1.91-7.48,3.71-12,5.92-2.33,1.14-9.42,4.36-9.42,4.36l-4.63,2.82-1.48,3.57c-.33.78-.63,1.54-.91,2.29S203,205.08,202.74,205.83Z" transform="translate(-124.43 -114.78)"/></svg>