<svg id="Layer_1" data-name="Layer 1" xmlns="http://www.w3.org/2000/svg" viewBox="0 0 334.38 604.91"><path d="M703.19,611.15A135.16,135.16,0,0,0,655,537.48c-.49-.39-1-.77-1.47-1.15a71.39,71.39,0,0,0-81.51-2.6V509h0V405.69h0V389.37a64,64,0,0,0-63.84,0V676.23l31.92,31.92L572,676.23h0V572.88a71.41,71.41,0,0,1,71.4,71.41V675a103.34,103.34,0,0,1-191.24,54.33l-54.32,33.57A167.2,167.2,0,0,0,707.28,675V644.29A135.15,135.15,0,0,0,703.19,611.15Z" transform="translate(-372.9 -237.3)"/><path d="M441.82,539.74a163.92,163.92,0,0,0,26.88,16V479.19a103.33,103.33,0,1,1,159.3-129l54.32-33.56a167.19,167.19,0,1,0-240.5,223.14Z" transform="translate(-372.9 -237.3)"/></svg>